<?xml version="1.0" standalone="no"?>
<!DOCTYPE svg PUBLIC "-//W3C//DTD SVG 20010904//EN"
 "http://www.w3.org/TR/2001/REC-SVG-20010904/DTD/svg10.dtd">
<svg version="1.0" xmlns="http://www.w3.org/2000/svg"
 width="1092.000000pt" height="1092.000000pt" viewBox="0 0 1092.000000 1092.000000"
 preserveAspectRatio="xMidYMid meet">
<metadata>
Created by potrace 1.14, written by Peter Selinger 2001-2017
</metadata>
<g transform="translate(0.000000,1092.000000) scale(0.100000,-0.100000)"
fill="#000000" stroke="none">
<path d="M1720 10245 c-30 -7 -56 -14 -57 -14 -2 -1 -11 -4 -20 -7 -77 -24
-235 -112 -227 -126 3 -4 1 -8 -5 -8 -27 0 -145 -143 -171 -207 -7 -18 -17
-33 -23 -33 -6 0 -8 -3 -5 -6 4 -3 0 -20 -7 -38 -8 -18 -16 -44 -19 -57 -2
-13 -9 -43 -14 -66 -5 -23 -10 -146 -11 -274 -1 -127 -4 -235 -6 -239 -3 -5
-1 -11 5 -15 6 -4 8 -11 4 -16 -8 -13 -7 -195 1 -209 3 -5 1 -10 -5 -10 -6 0
-8 -5 -5 -11 4 -6 6 -56 5 -112 -1 -56 -2 -108 -1 -114 1 -7 1 -19 2 -25 0 -7
-1 -360 -2 -785 0 -424 1 -775 4 -780 3 -5 2 -15 -3 -22 -4 -8 -4 -27 0 -42 5
-16 5 -31 0 -34 -6 -3 -5 -16 0 -29 5 -13 7 -26 5 -28 -4 -4 -5 -77 -4 -188 0
-8 -1 -59 -1 -112 -1 -53 1 -101 4 -107 4 -5 2 -12 -3 -16 -7 -3 -7 -15 -1
-29 5 -13 7 -26 5 -28 -4 -4 -5 -77 -4 -188 0 -8 -1 -59 -1 -112 -1 -53 1
-101 4 -107 4 -5 2 -12 -3 -16 -7 -3 -7 -15 -1 -29 5 -13 7 -26 5 -28 -4 -4
-5 -77 -4 -188 0 -8 -1 -59 -1 -112 -1 -53 1 -101 4 -107 4 -5 2 -12 -3 -16
-7 -3 -7 -15 -1 -29 5 -13 7 -26 5 -28 -4 -4 -5 -77 -4 -188 0 -8 -1 -59 -1
-112 -1 -53 1 -101 4 -107 4 -5 2 -12 -3 -16 -7 -3 -7 -15 -1 -29 5 -13 7 -26
4 -28 -3 -4 -4 -72 -3 -198 0 -8 -1 -362 -2 -787 0 -424 1 -775 4 -780 3 -5 2
-15 -3 -22 -4 -8 -4 -27 0 -42 5 -16 5 -31 0 -34 -6 -3 -5 -16 0 -29 5 -13 7
-26 5 -28 -4 -4 -5 -77 -4 -188 0 -8 -1 -59 -1 -112 -1 -53 1 -101 4 -107 4
-5 2 -12 -3 -16 -7 -3 -7 -15 -1 -29 5 -13 7 -26 5 -28 -4 -4 -5 -77 -4 -188
0 -8 -1 -59 -1 -112 -1 -53 1 -102 5 -107 3 -6 1 -11 -5 -11 -6 0 -8 -5 -5
-11 4 -6 6 -56 5 -112 -2 -118 -3 -103 5 -187 4 -36 7 -75 8 -87 1 -13 6 -23
10 -23 5 0 6 -4 2 -9 -3 -5 -1 -12 5 -16 6 -4 8 -11 5 -16 -4 -5 -1 -9 5 -9 6
0 10 -6 9 -12 -3 -21 53 -132 84 -166 10 -10 17 -22 17 -26 0 -12 88 -95 94
-89 3 4 6 1 6 -6 0 -16 26 -42 34 -34 3 4 6 1 6 -6 0 -7 4 -10 8 -7 5 3 15 -4
22 -15 8 -10 19 -19 26 -19 16 0 78 -32 86 -44 4 -6 8 -8 8 -4 0 4 19 0 42 -8
24 -8 74 -19 113 -25 67 -10 6712 -14 6795 -4 19 2 46 7 60 10 14 3 30 7 35 8
6 2 15 6 22 10 6 4 19 4 29 0 13 -5 15 -3 9 7 -6 10 -4 12 8 7 10 -3 17 -2 17
4 0 6 4 8 9 4 5 -3 16 2 25 11 9 8 21 12 27 8 8 -4 9 -3 5 4 -4 7 -1 12 8 12
9 0 16 5 16 10 0 6 6 10 14 10 7 0 19 7 26 15 7 8 16 12 21 10 4 -3 13 4 19
15 7 13 17 19 26 16 8 -3 12 -1 9 4 -3 5 12 27 35 48 22 22 40 45 40 51 0 7 5
9 10 6 6 -3 10 0 10 8 0 7 10 24 23 37 12 14 21 26 20 27 -5 5 10 38 25 56 8
9 11 17 7 17 -4 0 0 10 11 22 10 12 13 18 6 14 -10 -6 -10 -2 -1 18 7 14 15
24 18 22 3 -2 7 12 8 32 3 83 6 101 16 95 6 -4 7 -1 2 7 -9 14 -8 113 1 144 5
13 3 16 -6 11 -9 -5 -11 -4 -6 4 4 6 8 148 8 314 0 216 3 306 11 316 9 11 9
13 0 8 -11 -7 -15 129 -12 353 1 46 0 231 -1 280 -1 25 -1 1003 0 1025 0 11 1
37 1 58 0 25 4 35 12 31 7 -3 4 1 -5 9 -10 8 -15 16 -13 19 5 4 7 67 5 143 0
11 0 155 1 320 0 212 4 304 12 314 9 11 9 13 0 8 -11 -7 -15 129 -12 353 1 46
0 231 -1 280 -1 25 -1 1003 0 1025 0 11 1 37 1 58 0 25 4 35 12 31 7 -3 4 1
-5 9 -10 8 -15 16 -13 19 5 4 7 67 5 143 0 11 0 155 1 320 0 212 4 304 12 314
9 11 9 13 0 8 -11 -7 -15 129 -12 353 1 50 0 243 -2 280 -3 97 5 228 14 239 9
12 9 13 0 8 -17 -11 -16 371 0 392 9 11 9 13 1 8 -9 -5 -12 42 -12 179 0 102
-2 188 -5 190 -3 3 -1 19 3 35 5 17 7 36 5 42 -10 28 -11 98 -2 104 5 3 5 8 0
12 -5 3 -14 35 -21 70 -7 35 -17 71 -22 80 -13 24 -23 55 -22 64 1 4 -3 7 -9
7 -6 0 -9 7 -5 15 3 8 1 15 -4 15 -5 0 -17 14 -26 32 -9 18 -22 38 -28 44 -6
7 -20 24 -31 39 -23 30 -26 33 -80 80 -22 19 -44 35 -49 35 -5 0 -17 10 -27
22 -11 11 -19 18 -19 14 0 -4 -21 5 -47 20 -26 14 -59 28 -72 31 -14 2 -29 7
-35 11 -13 8 -21 9 -101 22 -37 6 -1341 9 -3425 9 -2758 -1 -3375 -3 -3420
-14z"/>
<path d="M9190 9280 c0 -5 5 -10 11 -10 5 0 7 5 4 10 -3 6 -8 10 -11 10 -2 0
-4 -4 -4 -10z"/>
<path d="M9276 8938 c3 -5 10 -6 15 -3 13 9 11 12 -6 12 -8 0 -12 -4 -9 -9z"/>
<path d="M9230 8480 c0 -5 5 -10 11 -10 5 0 7 5 4 10 -3 6 -8 10 -11 10 -2 0
-4 -4 -4 -10z"/>
<path d="M9230 8399 c0 -5 5 -7 10 -4 6 3 10 8 10 11 0 2 -4 4 -10 4 -5 0 -10
-5 -10 -11z"/>
<path d="M9340 8360 c-9 -6 -10 -10 -3 -10 6 0 15 5 18 10 8 12 4 12 -15 0z"/>
<path d="M9230 8160 c0 -5 5 -10 11 -10 5 0 7 5 4 10 -3 6 -8 10 -11 10 -2 0
-4 -4 -4 -10z"/>
<path d="M9230 8079 c0 -5 5 -7 10 -4 6 3 10 8 10 11 0 2 -4 4 -10 4 -5 0 -10
-5 -10 -11z"/>
<path d="M9304 7722 c4 -3 14 -7 22 -8 9 -1 13 0 10 4 -4 3 -14 7 -22 8 -9 1
-13 0 -10 -4z"/>
<path d="M9590 7720 c0 -5 5 -10 11 -10 5 0 7 5 4 10 -3 6 -8 10 -11 10 -2 0
-4 -4 -4 -10z"/>
<path d="M9187 7439 c7 -7 15 -10 18 -7 3 3 -2 9 -12 12 -14 6 -15 5 -6 -5z"/>
<path d="M9230 7200 c0 -5 5 -10 11 -10 5 0 7 5 4 10 -3 6 -8 10 -11 10 -2 0
-4 -4 -4 -10z"/>
<path d="M9230 7119 c0 -5 5 -7 10 -4 6 3 10 8 10 11 0 2 -4 4 -10 4 -5 0 -10
-5 -10 -11z"/>
<path d="M9340 7080 c-9 -6 -10 -10 -3 -10 6 0 15 5 18 10 8 12 4 12 -15 0z"/>
<path d="M9230 7040 c0 -5 5 -10 11 -10 5 0 7 5 4 10 -3 6 -8 10 -11 10 -2 0
-4 -4 -4 -10z"/>
<path d="M9230 6959 c0 -5 5 -7 10 -4 6 3 10 8 10 11 0 2 -4 4 -10 4 -5 0 -10
-5 -10 -11z"/>
<path d="M9304 6442 c4 -3 14 -7 22 -8 9 -1 13 0 10 4 -4 3 -14 7 -22 8 -9 1
-13 0 -10 -4z"/>
<path d="M9590 6440 c0 -5 5 -10 11 -10 5 0 7 5 4 10 -3 6 -8 10 -11 10 -2 0
-4 -4 -4 -10z"/>
<path d="M9187 6159 c7 -7 15 -10 18 -7 3 3 -2 9 -12 12 -14 6 -15 5 -6 -5z"/>
<path d="M9230 5920 c0 -5 5 -10 11 -10 5 0 7 5 4 10 -3 6 -8 10 -11 10 -2 0
-4 -4 -4 -10z"/>
<path d="M9230 5839 c0 -5 5 -7 10 -4 6 3 10 8 10 11 0 2 -4 4 -10 4 -5 0 -10
-5 -10 -11z"/>
<path d="M9340 5800 c-9 -6 -10 -10 -3 -10 6 0 15 5 18 10 8 12 4 12 -15 0z"/>
<path d="M9230 5600 c0 -5 5 -10 11 -10 5 0 7 5 4 10 -3 6 -8 10 -11 10 -2 0
-4 -4 -4 -10z"/>
<path d="M9230 5519 c0 -5 5 -7 10 -4 6 3 10 8 10 11 0 2 -4 4 -10 4 -5 0 -10
-5 -10 -11z"/>
<path d="M9304 5162 c4 -3 14 -7 22 -8 9 -1 13 0 10 4 -4 3 -14 7 -22 8 -9 1
-13 0 -10 -4z"/>
<path d="M9590 5160 c0 -5 5 -10 11 -10 5 0 7 5 4 10 -3 6 -8 10 -11 10 -2 0
-4 -4 -4 -10z"/>
<path d="M9187 4879 c7 -7 15 -10 18 -7 3 3 -2 9 -12 12 -14 6 -15 5 -6 -5z"/>
<path d="M9230 4640 c0 -5 5 -10 11 -10 5 0 7 5 4 10 -3 6 -8 10 -11 10 -2 0
-4 -4 -4 -10z"/>
<path d="M9230 4559 c0 -5 5 -7 10 -4 6 3 10 8 10 11 0 2 -4 4 -10 4 -5 0 -10
-5 -10 -11z"/>
<path d="M9340 4520 c-9 -6 -10 -10 -3 -10 6 0 15 5 18 10 8 12 4 12 -15 0z"/>
<path d="M9230 4480 c0 -5 5 -10 11 -10 5 0 7 5 4 10 -3 6 -8 10 -11 10 -2 0
-4 -4 -4 -10z"/>
<path d="M9230 4399 c0 -5 5 -7 10 -4 6 3 10 8 10 11 0 2 -4 4 -10 4 -5 0 -10
-5 -10 -11z"/>
<path d="M9304 3882 c4 -3 14 -7 22 -8 9 -1 13 0 10 4 -4 3 -14 7 -22 8 -9 1
-13 0 -10 -4z"/>
<path d="M9590 3880 c0 -5 5 -10 11 -10 5 0 7 5 4 10 -3 6 -8 10 -11 10 -2 0
-4 -4 -4 -10z"/>
<path d="M9187 3599 c7 -7 15 -10 18 -7 3 3 -2 9 -12 12 -14 6 -15 5 -6 -5z"/>
<path d="M9230 3360 c0 -5 5 -10 11 -10 5 0 7 5 4 10 -3 6 -8 10 -11 10 -2 0
-4 -4 -4 -10z"/>
<path d="M9230 3279 c0 -5 5 -7 10 -4 6 3 10 8 10 11 0 2 -4 4 -10 4 -5 0 -10
-5 -10 -11z"/>
<path d="M9340 3240 c-9 -6 -10 -10 -3 -10 6 0 15 5 18 10 8 12 4 12 -15 0z"/>
<path d="M9230 3040 c0 -5 5 -10 11 -10 5 0 7 5 4 10 -3 6 -8 10 -11 10 -2 0
-4 -4 -4 -10z"/>
<path d="M9230 2959 c0 -5 5 -7 10 -4 6 3 10 8 10 11 0 2 -4 4 -10 4 -5 0 -10
-5 -10 -11z"/>
<path d="M9226 2082 c-3 -5 1 -9 9 -9 8 0 12 4 9 9 -3 4 -7 8 -9 8 -2 0 -6 -4
-9 -8z"/>
<path d="M9226 2002 c-3 -5 1 -9 9 -9 8 0 12 4 9 9 -3 4 -7 8 -9 8 -2 0 -6 -4
-9 -8z"/>
<path d="M9230 1920 c0 -5 5 -10 11 -10 5 0 7 5 4 10 -3 6 -8 10 -11 10 -2 0
-4 -4 -4 -10z"/>
<path d="M9226 1842 c-3 -5 1 -9 9 -9 8 0 12 4 9 9 -3 4 -7 8 -9 8 -2 0 -6 -4
-9 -8z"/>
<path d="M8595 1240 c-3 -5 -1 -10 4 -10 6 0 11 5 11 10 0 6 -2 10 -4 10 -3 0
-8 -4 -11 -10z"/>
<path d="M4189 1163 c-13 -16 -12 -17 4 -4 16 13 21 21 13 21 -2 0 -10 -8 -17
-17z"/>
<path d="M6109 1163 c-13 -16 -12 -17 4 -4 16 13 21 21 13 21 -2 0 -10 -8 -17
-17z"/>
<path d="M2350 1166 c0 -2 7 -7 16 -10 8 -3 12 -2 9 4 -6 10 -25 14 -25 6z"/>
<path d="M8150 1156 c0 -2 8 -10 18 -17 15 -13 16 -12 3 4 -13 16 -21 21 -21
13z"/>
<path d="M3786 1078 c3 -5 10 -6 15 -3 13 9 11 12 -6 12 -8 0 -12 -4 -9 -9z"/>
<path d="M5706 1078 c3 -5 10 -6 15 -3 13 9 11 12 -6 12 -8 0 -12 -4 -9 -9z"/>
<path d="M2036 962 c-3 -5 1 -9 9 -9 8 0 12 4 9 9 -3 4 -7 8 -9 8 -2 0 -6 -4
-9 -8z"/>
<path d="M3830 959 c0 -5 5 -7 10 -4 6 3 10 8 10 11 0 2 -4 4 -10 4 -5 0 -10
-5 -10 -11z"/>
<path d="M5750 959 c0 -5 5 -7 10 -4 6 3 10 8 10 11 0 2 -4 4 -10 4 -5 0 -10
-5 -10 -11z"/>
<path d="M4035 929 c-4 -6 -5 -12 -2 -15 2 -3 7 2 10 11 7 17 1 20 -8 4z"/>
<path d="M5955 929 c-4 -6 -5 -12 -2 -15 2 -3 7 2 10 11 7 17 1 20 -8 4z"/>
</g>
</svg>
